<svg width="749" height="354" viewBox="0 0 749 354" fill="none" xmlns="http://www.w3.org/2000/svg">
<path d="M67.62 61.74C73.3133 62.9533 77.8867 65.8 81.34 70.28C84.7933 74.6667 86.52 79.7067 86.52 85.4C86.52 93.6133 83.6267 100.147 77.84 105C72.1467 109.76 64.1667 112.14 53.9 112.14H8.12V13.86H52.36C62.3467 13.86 70.14 16.1467 75.74 20.72C81.4333 25.2933 84.28 31.5 84.28 39.34C84.28 45.1267 82.74 49.9333 79.66 53.76C76.6733 57.5867 72.66 60.2467 67.62 61.74ZM32.06 53.62H47.74C51.66 53.62 54.6467 52.78 56.7 51.1C58.8467 49.3267 59.92 46.76 59.92 43.4C59.92 40.04 58.8467 37.4733 56.7 35.7C54.6467 33.9267 51.66 33.04 47.74 33.04H32.06V53.62ZM49.7 92.82C53.7133 92.82 56.7933 91.9333 58.94 90.16C61.18 88.2933 62.3 85.6333 62.3 82.18C62.3 78.7267 61.1333 76.02 58.8 74.06C56.56 72.1 53.4333 71.12 49.42 71.12H32.06V92.82H49.7Z" fill="#0066FF"/>
<path d="M176.145 34.02V112.14H152.205V101.5C149.778 104.953 146.465 107.753 142.265 109.9C138.159 111.953 133.585 112.98 128.545 112.98C122.572 112.98 117.298 111.673 112.725 109.06C108.152 106.353 104.605 102.48 102.085 97.44C99.5652 92.4 98.3052 86.4733 98.3052 79.66V34.02H122.105V76.44C122.105 81.6667 123.458 85.7267 126.165 88.62C128.872 91.5133 132.512 92.96 137.085 92.96C141.752 92.96 145.438 91.5133 148.145 88.62C150.852 85.7267 152.205 81.6667 152.205 76.44V34.02H176.145Z" fill="#0066FF"/>
<path d="M203.981 25.9C199.781 25.9 196.328 24.6867 193.621 22.26C191.008 19.74 189.701 16.66 189.701 13.02C189.701 9.28667 191.008 6.20667 193.621 3.78C196.328 1.26 199.781 0 203.981 0C208.088 0 211.448 1.26 214.061 3.78C216.768 6.20667 218.121 9.28667 218.121 13.02C218.121 16.66 216.768 19.74 214.061 22.26C211.448 24.6867 208.088 25.9 203.981 25.9ZM215.881 34.02V112.14H191.941V34.02H215.881Z" fill="#0066FF"/>
<path d="M255.77 8.54001V112.14H231.83V8.54001H255.77Z" fill="#0066FF"/>
<path d="M266.959 72.94C266.959 64.9133 268.453 57.8667 271.439 51.8C274.519 45.7333 278.673 41.0667 283.899 37.8C289.126 34.5333 294.959 32.9 301.399 32.9C306.533 32.9 311.199 33.9733 315.399 36.12C319.693 38.2667 323.053 41.16 325.479 44.8V8.54001H349.419V112.14H325.479V100.94C323.239 104.673 320.019 107.66 315.819 109.9C311.713 112.14 306.906 113.26 301.399 113.26C294.959 113.26 289.126 111.627 283.899 108.36C278.673 105 274.519 100.287 271.439 94.22C268.453 88.06 266.959 80.9667 266.959 72.94ZM325.479 73.08C325.479 67.1067 323.799 62.3933 320.439 58.94C317.173 55.4867 313.159 53.76 308.399 53.76C303.639 53.76 299.579 55.4867 296.219 58.94C292.953 62.3 291.319 66.9667 291.319 72.94C291.319 78.9133 292.953 83.6733 296.219 87.22C299.579 90.6733 303.639 92.4 308.399 92.4C313.159 92.4 317.173 90.6733 320.439 87.22C323.799 83.7667 325.479 79.0533 325.479 73.08Z" fill="#0066FF"/>
<path d="M429.167 113.26C421.513 113.26 414.607 111.627 408.447 108.36C402.38 105.093 397.573 100.427 394.027 94.36C390.573 88.2933 388.847 81.2 388.847 73.08C388.847 65.0533 390.62 58.0067 394.167 51.94C397.713 45.78 402.567 41.0667 408.727 37.8C414.887 34.5333 421.793 32.9 429.447 32.9C437.1 32.9 444.007 34.5333 450.167 37.8C456.327 41.0667 461.18 45.78 464.727 51.94C468.273 58.0067 470.047 65.0533 470.047 73.08C470.047 81.1067 468.227 88.2 464.587 94.36C461.04 100.427 456.14 105.093 449.887 108.36C443.727 111.627 436.82 113.26 429.167 113.26ZM429.167 92.54C433.74 92.54 437.613 90.86 440.787 87.5C444.053 84.14 445.687 79.3333 445.687 73.08C445.687 66.8267 444.1 62.02 440.927 58.66C437.847 55.3 434.02 53.62 429.447 53.62C424.78 53.62 420.907 55.3 417.827 58.66C414.747 61.9267 413.207 66.7333 413.207 73.08C413.207 79.3333 414.7 84.14 417.687 87.5C420.767 90.86 424.593 92.54 429.167 92.54Z" fill="#0066FF"/>
<path d="M558.487 34.02V112.14H534.547V101.5C532.121 104.953 528.807 107.753 524.607 109.9C520.501 111.953 515.927 112.98 510.887 112.98C504.914 112.98 499.641 111.673 495.067 109.06C490.494 106.353 486.947 102.48 484.427 97.44C481.907 92.4 480.647 86.4733 480.647 79.66V34.02H504.447V76.44C504.447 81.6667 505.801 85.7267 508.507 88.62C511.214 91.5133 514.854 92.96 519.427 92.96C524.094 92.96 527.781 91.5133 530.487 88.62C533.194 85.7267 534.547 81.6667 534.547 76.44V34.02H558.487Z" fill="#0066FF"/>
<path d="M598.223 47.04C601.023 42.7467 604.523 39.3867 608.723 36.96C612.923 34.44 617.59 33.18 622.723 33.18V58.52H616.143C610.17 58.52 605.69 59.8267 602.703 62.44C599.717 64.96 598.223 69.44 598.223 75.88V112.14H574.283V34.02H598.223V47.04Z" fill="#0066FF"/>
<path d="M43.68 233.26C36.0267 233.26 29.12 231.627 22.96 228.36C16.8933 225.093 12.0867 220.427 8.54 214.36C5.08667 208.293 3.36 201.2 3.36 193.08C3.36 185.053 5.13333 178.007 8.68 171.94C12.2267 165.78 17.08 161.067 23.24 157.8C29.4 154.533 36.3067 152.9 43.96 152.9C51.6133 152.9 58.52 154.533 64.68 157.8C70.84 161.067 75.6933 165.78 79.24 171.94C82.7867 178.007 84.56 185.053 84.56 193.08C84.56 201.107 82.74 208.2 79.1 214.36C75.5533 220.427 70.6533 225.093 64.4 228.36C58.24 231.627 51.3333 233.26 43.68 233.26ZM43.68 212.54C48.2533 212.54 52.1267 210.86 55.3 207.5C58.5667 204.14 60.2 199.333 60.2 193.08C60.2 186.827 58.6133 182.02 55.44 178.66C52.36 175.3 48.5333 173.62 43.96 173.62C39.2933 173.62 35.42 175.3 32.34 178.66C29.26 181.927 27.72 186.733 27.72 193.08C27.72 199.333 29.2133 204.14 32.2 207.5C35.28 210.86 39.1067 212.54 43.68 212.54Z" fill="#0066FF"/>
<path d="M208.001 154.02L186.861 232.14H160.401L148.081 181.46L135.341 232.14H109.021L87.7406 154.02H111.681L122.741 209.88L135.901 154.02H161.241L174.541 209.6L185.461 154.02H208.001Z" fill="#0066FF"/>
<path d="M263.33 153.18C272.477 153.18 279.757 156.167 285.17 162.14C290.677 168.02 293.43 176.14 293.43 186.5V232.14H269.63V189.72C269.63 184.493 268.277 180.433 265.57 177.54C262.863 174.647 259.224 173.2 254.65 173.2C250.077 173.2 246.437 174.647 243.73 177.54C241.023 180.433 239.67 184.493 239.67 189.72V232.14H215.73V154.02H239.67V164.38C242.097 160.927 245.363 158.22 249.47 156.26C253.577 154.207 258.197 153.18 263.33 153.18Z" fill="#0066FF"/>
<path d="M332.174 192.94C332.174 184.913 333.667 177.867 336.654 171.8C339.734 165.733 343.887 161.067 349.114 157.8C354.341 154.533 360.174 152.9 366.614 152.9C372.121 152.9 376.927 154.02 381.034 156.26C385.234 158.5 388.454 161.44 390.694 165.08V154.02H414.634V232.14H390.694V221.08C388.361 224.72 385.094 227.66 380.894 229.9C376.787 232.14 371.981 233.26 366.474 233.26C360.127 233.26 354.341 231.627 349.114 228.36C343.887 225 339.734 220.287 336.654 214.22C333.667 208.06 332.174 200.967 332.174 192.94ZM390.694 193.08C390.694 187.107 389.014 182.393 385.654 178.94C382.387 175.487 378.374 173.76 373.614 173.76C368.854 173.76 364.794 175.487 361.434 178.94C358.167 182.3 356.534 186.967 356.534 192.94C356.534 198.913 358.167 203.673 361.434 207.22C364.794 210.673 368.854 212.4 373.614 212.4C378.374 212.4 382.387 210.673 385.654 207.22C389.014 203.767 390.694 199.053 390.694 193.08Z" fill="#0066FF"/>
<path d="M506.422 153.18C515.568 153.18 522.848 156.167 528.262 162.14C533.768 168.02 536.522 176.14 536.522 186.5V232.14H512.722V189.72C512.722 184.493 511.368 180.433 508.662 177.54C505.955 174.647 502.315 173.2 497.742 173.2C493.168 173.2 489.528 174.647 486.822 177.54C484.115 180.433 482.762 184.493 482.762 189.72V232.14H458.822V154.02H482.762V164.38C485.188 160.927 488.455 158.22 492.562 156.26C496.668 154.207 501.288 153.18 506.422 153.18Z" fill="#0066FF"/>
<path d="M625.398 191.82C625.398 194.06 625.258 196.393 624.978 198.82H570.798C571.171 203.673 572.711 207.407 575.418 210.02C578.218 212.54 581.624 213.8 585.638 213.8C591.611 213.8 595.764 211.28 598.098 206.24H623.578C622.271 211.373 619.891 215.993 616.438 220.1C613.078 224.207 608.831 227.427 603.698 229.76C598.564 232.093 592.824 233.26 586.478 233.26C578.824 233.26 572.011 231.627 566.038 228.36C560.064 225.093 555.398 220.427 552.038 214.36C548.678 208.293 546.997 201.2 546.997 193.08C546.997 184.96 548.631 177.867 551.898 171.8C555.258 165.733 559.924 161.067 565.898 157.8C571.871 154.533 578.731 152.9 586.478 152.9C594.038 152.9 600.758 154.487 606.638 157.66C612.518 160.833 617.091 165.36 620.358 171.24C623.718 177.12 625.398 183.98 625.398 191.82ZM600.898 185.52C600.898 181.413 599.497 178.147 596.698 175.72C593.898 173.293 590.398 172.08 586.198 172.08C582.184 172.08 578.778 173.247 575.978 175.58C573.271 177.913 571.591 181.227 570.938 185.52H600.898Z" fill="#0066FF"/>
<path d="M748.767 154.02L727.627 232.14H701.167L688.847 181.46L676.107 232.14H649.787L628.507 154.02H652.447L663.507 209.88L676.667 154.02H702.007L715.307 209.6L726.227 154.02H748.767Z" fill="#0066FF"/>
<path d="M120.26 274.02L99.12 352.14H72.66L60.34 301.46L47.6 352.14H21.28L0 274.02H23.94L35 329.88L48.16 274.02H73.5L86.8 329.6L97.72 274.02H120.26Z" fill="#0066FF"/>
<path d="M163.55 353.26C155.896 353.26 148.99 351.627 142.83 348.36C136.763 345.093 131.956 340.427 128.41 334.36C124.956 328.293 123.23 321.2 123.23 313.08C123.23 305.053 125.003 298.007 128.55 291.94C132.096 285.78 136.95 281.067 143.11 277.8C149.27 274.533 156.176 272.9 163.83 272.9C171.483 272.9 178.39 274.533 184.55 277.8C190.71 281.067 195.563 285.78 199.11 291.94C202.656 298.007 204.43 305.053 204.43 313.08C204.43 321.107 202.61 328.2 198.97 334.36C195.423 340.427 190.523 345.093 184.27 348.36C178.11 351.627 171.203 353.26 163.55 353.26ZM163.55 332.54C168.123 332.54 171.996 330.86 175.17 327.5C178.436 324.14 180.07 319.333 180.07 313.08C180.07 306.827 178.483 302.02 175.31 298.66C172.23 295.3 168.403 293.62 163.83 293.62C159.163 293.62 155.29 295.3 152.21 298.66C149.13 301.927 147.59 306.733 147.59 313.08C147.59 319.333 149.083 324.14 152.07 327.5C155.15 330.86 158.976 332.54 163.55 332.54Z" fill="#0066FF"/>
<path d="M239.67 287.04C242.47 282.747 245.97 279.387 250.17 276.96C254.37 274.44 259.037 273.18 264.17 273.18V298.52H257.59C251.617 298.52 247.137 299.827 244.15 302.44C241.163 304.96 239.67 309.44 239.67 315.88V352.14H215.73V274.02H239.67V287.04Z" fill="#0066FF"/>
<path d="M298.153 248.54V352.14H274.213V248.54H298.153Z" fill="#0066FF"/>
<path d="M309.342 312.94C309.342 304.913 310.835 297.867 313.822 291.8C316.902 285.733 321.055 281.067 326.282 277.8C331.509 274.533 337.342 272.9 343.782 272.9C348.915 272.9 353.582 273.973 357.782 276.12C362.075 278.267 365.435 281.16 367.862 284.8V248.54H391.802V352.14H367.862V340.94C365.622 344.673 362.402 347.66 358.202 349.9C354.095 352.14 349.289 353.26 343.782 353.26C337.342 353.26 331.509 351.627 326.282 348.36C321.055 345 316.902 340.287 313.822 334.22C310.835 328.06 309.342 320.967 309.342 312.94ZM367.862 313.08C367.862 307.107 366.182 302.393 362.822 298.94C359.555 295.487 355.542 293.76 350.782 293.76C346.022 293.76 341.962 295.487 338.602 298.94C335.335 302.3 333.702 306.967 333.702 312.94C333.702 318.913 335.335 323.673 338.602 327.22C341.962 330.673 346.022 332.4 350.782 332.4C355.542 332.4 359.555 330.673 362.822 327.22C366.182 323.767 367.862 319.053 367.862 313.08Z" fill="#0066FF"/>
<path d="M418.922 353.26C414.722 353.26 411.268 352.047 408.562 349.62C405.948 347.1 404.642 344.02 404.642 340.38C404.642 336.647 405.948 333.52 408.562 331C411.268 328.48 414.722 327.22 418.922 327.22C423.028 327.22 426.388 328.48 429.002 331C431.708 333.52 433.062 336.647 433.062 340.38C433.062 344.02 431.708 347.1 429.002 349.62C426.388 352.047 423.028 353.26 418.922 353.26Z" fill="#0066FF"/>
</svg>
